<svg width="30" height="23" viewBox="0 0 30 23" fill="none" xmlns="http://www.w3.org/2000/svg">
<path d="M17.0669 10.6384L17.0694 11.2838C17.0694 13.9665 16.9298 16.4122 16.7195 18.0065L16.5353 18.9979C16.4328 19.523 16.298 20.1209 16.1575 20.4261C15.6433 21.5425 14.6378 22.2332 13.5615 22.2332H13.4679C12.7663 22.2071 11.2925 21.5144 11.2925 21.4903C8.92092 20.3706 4.34558 16.9911 2.23244 14.5819L1.61837 13.8585C1.45757 13.6625 1.2769 13.4305 1.16475 13.2496C0.790105 12.6914 0.602783 12.0007 0.602783 11.3099C0.602783 10.5389 0.813078 9.82204 1.21069 9.23572L1.84159 8.46954L1.98295 8.30603C3.90035 5.96676 8.90678 2.14159 11.5257 0.970949L11.9212 0.800429C12.397 0.608512 13.0636 0.379604 13.4679 0.358521C13.9821 0.358521 14.4734 0.493054 14.9417 0.758105C15.5266 1.12958 15.9932 1.7159 16.2512 2.40664C16.4155 2.88454 16.6735 4.32023 16.6735 4.34633C16.9101 5.79392 17.0472 8.07815 17.0669 10.6384ZM29.7617 11.2967C29.7617 12.8247 28.6713 14.0637 27.3265 14.0637L21.334 13.4673C20.279 13.4673 19.4236 12.4954 19.4236 11.2967C19.4236 10.0959 20.279 9.12608 21.334 9.12608L27.3265 8.52972C28.6713 8.52972 29.7617 9.76863 29.7617 11.2967Z" fill="#FEC553"/>
</svg>
