<svg width="32" height="32" viewBox="0 0 32 32" fill="none" xmlns="http://www.w3.org/2000/svg">
<path d="M10.0479 0.000260484C11.0559 0.0325289 12.0319 0.217789 12.9775 0.55631H13.0719C13.1359 0.588309 13.1839 0.623677 13.2159 0.655676C13.5695 0.775253 13.9039 0.909988 14.2239 1.09525L14.8319 1.38156C15.0719 1.51629 15.3599 1.76724 15.5199 1.86997C15.6799 1.96934 15.8559 2.07207 15.9999 2.18828C17.7774 0.758412 19.9358 -0.0163124 22.1598 0.000260484C23.1694 0.000260484 24.1774 0.150422 25.1358 0.488942C31.0413 2.50996 33.1693 9.3309 31.3917 15.2929C30.3837 18.3396 28.7357 21.1202 26.5773 23.3921C23.4878 26.5416 20.0974 29.3373 16.4479 31.7457L16.0479 32L15.6319 31.7288C11.9695 29.3373 8.55994 26.5416 5.44157 23.3753C3.29759 21.1033 1.64801 18.3396 0.62402 15.2929C-1.18396 9.3309 0.944017 2.50996 6.91355 0.453575C7.37755 0.285156 7.85594 0.167263 8.33594 0.10158H8.52794C8.97753 0.0325289 9.42393 0.000260484 9.87192 0.000260484H10.0479ZM24.3038 5.32255C23.6478 5.08508 22.9278 5.45728 22.6878 6.16464C22.4638 6.87199 22.8158 7.64672 23.4878 7.89766C24.5134 8.30187 25.1998 9.36458 25.1998 10.5418V10.594C25.1694 10.9797 25.2798 11.3519 25.5038 11.6382C25.7278 11.9245 26.0638 12.0913 26.4158 12.1266C27.0717 12.1081 27.6317 11.554 27.6797 10.845V10.6446C27.7277 8.28502 26.3694 6.1478 24.3038 5.32255Z" fill="#FEC553"/>
</svg>
