<svg width="32" height="32" viewBox="0 0 32 32" fill="none" xmlns="http://www.w3.org/2000/svg">
<path d="M11.1744 30.0373V25.145C11.1744 23.8961 12.2479 22.8837 13.5721 22.8837H18.4128C19.0487 22.8837 19.6586 23.1219 20.1083 23.546C20.5579 23.9701 20.8106 24.5452 20.8106 25.145V30.0373C20.8065 30.5565 21.0224 31.0558 21.4103 31.4243C21.7982 31.7927 22.326 32 22.8765 32H26.1791C27.7215 32.0037 29.2021 31.4285 30.2942 30.4013C31.3863 29.374 32 27.9792 32 26.5245V12.587C32 11.4119 31.4477 10.2973 30.492 9.54346L19.2573 1.08139C17.303 -0.402301 14.5029 -0.354396 12.607 1.19517L1.62865 9.54346C0.627774 10.2751 0.0295618 11.393 0 12.587V26.5103C0 29.5421 2.60612 32 5.82092 32H9.04807C10.1915 32 11.1208 31.1299 11.1291 30.0516L11.1744 30.0373Z" fill="#FEC553"/>
</svg>
