<svg width="35" height="30" viewBox="0 0 35 30" fill="none" xmlns="http://www.w3.org/2000/svg">
<path d="M27.6572 12.5501L18.9893 3.91733C18.2066 3.13798 18.2041 1.87194 18.9834 1.0892C19.6921 0.377394 20.8023 0.310655 21.5869 0.889984L21.6025 0.900726L21.6162 0.913422L21.7852 1.05795L21.7988 1.06967L21.8115 1.08237L33.9111 13.1312C34.0137 13.2333 34.1035 13.3438 34.1797 13.4613L34.1836 13.4681L34.1875 13.474C34.2035 13.5002 34.224 13.5338 34.2441 13.5697L34.2432 13.5706C34.2639 13.6061 34.2826 13.6391 34.2969 13.6683L34.3008 13.6761C34.3195 13.7162 34.3385 13.7613 34.3574 13.8089C34.3759 13.8535 34.3919 13.8953 34.4043 13.9339L34.4062 13.9388C34.4198 13.9827 34.4331 14.032 34.4453 14.0833L34.4443 14.0843C34.4537 14.1218 34.4618 14.157 34.4678 14.1898L34.4688 14.1937C34.4771 14.2425 34.4849 14.2949 34.4902 14.349L34.4893 14.3499C34.4939 14.3926 34.4976 14.4333 34.499 14.472V14.4828C34.4993 14.4991 34.5 14.5244 34.5 14.5492V14.555L34.499 14.6136V14.6263C34.498 14.6537 34.4954 14.681 34.4932 14.7083V14.7181H34.4922C34.4915 14.7265 34.492 14.7351 34.4912 14.7435H34.4893C34.4836 14.8015 34.4763 14.8588 34.4658 14.9154C34.4603 14.946 34.454 14.9763 34.4473 15.0052V15.0062C34.4333 15.0653 34.4174 15.1231 34.3984 15.18H34.3975C34.3878 15.2094 34.3774 15.2399 34.3662 15.2689V15.2699C34.3432 15.3292 34.3181 15.3866 34.29 15.4427H34.2891C34.2756 15.4699 34.2618 15.4975 34.2471 15.5238L34.2461 15.5247C34.2217 15.5681 34.1963 15.6104 34.1689 15.6517H34.168C34.1484 15.6814 34.1272 15.7113 34.1055 15.7406L34.1045 15.7425L34.0918 15.7601L34.0889 15.764C34.0351 15.8342 33.9765 15.9008 33.9141 15.9632L33.8906 15.9867L21.8115 28.015C21.0289 28.7944 19.7628 28.7918 18.9834 28.0091C18.3189 27.3419 18.2228 26.3241 18.6934 25.555L18.7959 25.4046L18.8066 25.39L18.8184 25.3753L18.9639 25.2074L18.9766 25.1937L18.9893 25.181L27.6523 16.5501L2.5 16.5492L2.2959 16.5384C1.28733 16.4362 0.500188 15.5847 0.5 14.5492C0.5 13.5996 1.1614 12.8047 2.04883 12.5999L2.22949 12.5667L2.24609 12.5648L2.2627 12.5638L2.4668 12.5501L2.4834 12.5492H2.5L27.6572 12.5501Z" fill="white" stroke="white"/>
</svg>
